<svg width="96" height="91" viewBox="0 0 96 91" fill="none" xmlns="http://www.w3.org/2000/svg">
<path d="M5.59045 36.9058C5.59045 46.8469 13.6493 54.9058 23.5905 54.9058L50.5905 54.9058C53.3519 54.9058 55.5905 52.6672 55.5905 49.9058L55.5905 15.9058C55.5905 10.383 51.1133 5.90582 45.5905 5.90582L10.5905 5.90583C7.82903 5.90583 5.59045 8.1444 5.59045 10.9058L5.59045 36.9058Z" fill="#FFF1DA"/>
<path d="M55.3536 51.7366C54.5887 51.8749 53.8527 52.1709 53.1912 52.6059C51.4661 53.7089 50.5189 55.3722 51.0758 56.3206C51.6327 57.2689 53.4825 57.143 55.2077 56.0399C55.8794 55.6223 56.4662 55.0726 56.9321 54.4248C57.1475 54.1113 57.1669 53.706 56.9816 53.3914L56.2582 52.1594C56.074 51.8439 55.719 51.6782 55.3536 51.7366Z" fill="#D5D6DB"/>
<path d="M49.9521 35.1805C49.3975 35.2809 48.8638 35.4956 48.384 35.811C47.1334 36.6107 46.4462 37.8167 46.8497 38.5038C47.2531 39.1908 48.595 39.0994 49.8455 38.2999C50.3325 37.9968 50.758 37.598 51.0958 37.1283C51.2519 36.901 51.2658 36.6074 51.1315 36.3793L50.6077 35.4873C50.4743 35.2586 50.2171 35.1382 49.9521 35.1805Z" fill="#D5D6DB"/>
<path d="M42.6787 35.4348C42.5528 35.4127 42.4214 35.4402 42.31 35.5116L39.3725 37.3901C39.1267 37.5467 39.0429 37.8711 39.1854 38.1148C39.218 38.1706 39.2611 38.2192 39.3123 38.2577L47.1364 44.1815L56.9317 37.9175L42.6787 35.4348Z" fill="#029BC5"/>
<path d="M74.8015 36.5424L48.1322 53.3624L32.1318 59.2996L23.8744 60.5675L22.8639 58.8615L67.3502 31.4161C68.6758 30.5943 70.1774 30.1302 71.7033 30.0709C72.3717 30.0487 73.0365 30.1112 73.6821 30.2565C74.2543 30.3807 74.802 30.5877 75.3088 30.8713C75.8747 31.1921 76.9233 31.2867 77.2942 31.8816C77.2953 31.8808 78.2413 34.568 74.8015 36.5424V36.5424Z" fill="#E1E6E9"/>
<path d="M48.3642 50.9438L37.5032 70.4446C37.3693 70.7197 37.4757 71.0426 37.7407 71.166C37.9033 71.2417 38.0964 71.2269 38.2537 71.1266L41.1895 69.2588C41.7541 68.8994 42.2457 68.4296 42.6339 67.8787L64.2657 40.3454L48.3642 50.9438Z" fill="#029BC5"/>
<path d="M18.0995 48.4999C17.8957 48.4159 17.66 48.4395 17.4667 48.563L15.0403 50.1136C14.7097 50.3247 14.5974 50.7612 14.7895 51.0887C14.8261 51.1509 14.8722 51.2065 14.9264 51.2533L22.319 57.6496L29.4721 53.1782L18.0995 48.4999Z" fill="#029BC5"/>
<path d="M24.7456 58.8667L21.2565 64.2754C21.2053 64.3531 21.224 64.4554 21.2983 64.5039C21.3519 64.5388 21.4223 64.5372 21.4776 64.4998L23.7456 63.0588C23.7632 63.0476 23.7789 63.0332 23.7916 63.0164L28.9498 56.1982L24.7456 58.8667Z" fill="#029BC5"/>
<path d="M73.2411 30.4727C72.5762 30.3222 71.8916 30.2583 71.2032 30.2822C70.5845 31.2393 70.2159 32.3336 70.1339 33.4559C70.1359 33.6824 70.318 33.856 70.5408 33.8437C70.61 33.8398 70.6779 33.8179 70.738 33.7801L74.9168 31.1102C74.3946 30.8158 73.8304 30.6012 73.2411 30.4727Z" fill="#029BC5"/>
<path d="M64.0793 35.2958L66.8085 33.5682L69.711 38.4724L66.9819 40.1999L64.0793 35.2958Z" fill="#D5D6DB"/>
<path d="M62.4 37.0699C62.0712 37.2787 61.959 37.7106 62.1498 38.0345L62.4588 38.5591C62.6605 38.8756 63.0852 38.9541 63.4076 38.7343C63.7144 38.525 63.8201 38.118 63.6492 37.803L63.3402 37.2783C63.1497 36.9548 62.7289 36.8614 62.4 37.0699V37.0699Z" fill="#3A556A"/>
<path d="M59.9454 38.5942C59.6166 38.8031 59.5044 39.235 59.6952 39.5588L60.0042 40.0835C60.2059 40.4 60.6306 40.4784 60.953 40.2586C61.2598 40.0493 61.3655 39.6424 61.1946 39.3273L60.8856 38.8027C60.6949 38.4792 60.2741 38.3858 59.9454 38.5942V38.5942Z" fill="#3A556A"/>
<path d="M57.4901 40.119C57.1617 40.3282 57.05 40.7596 57.2406 41.0832L57.5496 41.6078C57.7513 41.9243 58.176 42.0028 58.4984 41.783C58.8052 41.5736 58.9109 41.1667 58.74 40.8517L58.431 40.327C58.2403 40.0032 57.8191 39.9101 57.4901 40.119V40.119Z" fill="#3A556A"/>
<path d="M55.0356 41.6433C54.7071 41.8525 54.5954 42.2839 54.786 42.6075L55.095 43.1321C55.2967 43.4486 55.7215 43.5271 56.0438 43.3073C56.3506 43.098 56.4563 42.691 56.2855 42.376L55.9765 41.8513C55.7856 41.5276 55.3644 41.4345 55.0356 41.6433V41.6433Z" fill="#3A556A"/>
<path d="M52.5813 43.1678C52.2527 43.377 52.1409 43.8086 52.3316 44.1323L52.6408 44.6572C52.8314 44.9808 53.2524 45.0738 53.5811 44.8651C53.9099 44.6563 54.0219 44.2248 53.8313 43.9012L53.5221 43.3763C53.3319 43.0525 52.911 42.959 52.582 43.1673C52.5817 43.1675 52.5816 43.1676 52.5813 43.1678Z" fill="#3A556A"/>
<path d="M50.1267 44.6921C49.7981 44.9013 49.6863 45.3329 49.877 45.6566L50.1862 46.1815C50.3768 46.5051 50.7978 46.5981 51.1265 46.3894C51.4553 46.1806 51.5673 45.749 51.3767 45.4255L51.0675 44.9006C50.8773 44.5768 50.4564 44.4833 50.1274 44.6916C50.1271 44.6918 50.1269 44.692 50.1267 44.6921Z" fill="#3A556A"/>
<path d="M47.6721 46.2164C47.3435 46.4257 47.2317 46.8573 47.4224 47.181L47.7316 47.7058C47.9226 48.0291 48.3438 48.1215 48.6721 47.9124C48.9999 47.7037 49.1117 47.2731 48.9219 46.9499L48.6127 46.425C48.4222 46.1013 48.0012 46.0078 47.6721 46.2164Z" fill="#3A556A"/>
<path d="M45.2174 47.7408C44.8888 47.95 44.777 48.3816 44.9677 48.7053L45.2769 49.2302C45.4679 49.5535 45.8891 49.6459 46.2174 49.4368C46.5452 49.2281 46.657 48.7974 46.4672 48.4743L46.158 47.9494C45.9675 47.6256 45.5465 47.5322 45.2174 47.7408Z" fill="#3A556A"/>
<path d="M42.763 49.2651C42.4343 49.4743 42.3226 49.9059 42.5132 50.2296L42.8224 50.7545C43.0134 51.0778 43.4346 51.1701 43.763 50.9611C44.0908 50.7523 44.2025 50.3217 44.0127 49.9986L43.7036 49.4737C43.5129 49.15 43.0919 49.0566 42.763 49.2651Z" fill="#3A556A"/>
<path d="M40.3076 50.7898C39.9789 50.9986 39.8669 51.4301 40.0575 51.7537L40.0579 51.7544L40.3671 52.2793C40.5581 52.6026 40.9793 52.695 41.3076 52.4859C41.6354 52.2771 41.7472 51.8465 41.5574 51.5233L41.2482 50.9985C41.0577 50.6747 40.6367 50.5812 40.3076 50.7898Z" fill="#3A556A"/>
<path d="M37.8537 52.3137C37.5249 52.5225 37.4129 52.954 37.6035 53.2776L37.6039 53.2782L37.9131 53.8031C38.1041 54.1264 38.5253 54.2188 38.8537 54.0097C39.1815 53.801 39.2932 53.3703 39.1035 53.0472L38.7943 52.5223C38.6036 52.1986 38.1826 52.1052 37.8537 52.3137Z" fill="#3A556A"/>
</svg>
