<svg width="22" height="22" viewBox="0 0 22 22" fill="none" xmlns="http://www.w3.org/2000/svg">
<path d="M0.5446 4.4755C0.248 4.4755 0.0054 4.2328 0 3.9363V0.5446C0 0.2426 0.2426 0 0.5446 0H3.9363C4.2328 0 4.4755 0.2426 4.4755 0.5446V1.7255H17.5245V0.5446C17.5245 0.248 17.7672 0.0054 18.0637 0H21.4554C21.752 0 21.9946 0.2426 22 0.5446V3.9363C22 4.2328 21.7574 4.4755 21.4554 4.4755H20.2745V17.5245H21.4554C21.752 17.5245 21.9946 17.7672 22 18.0637V21.4554C22 21.752 21.7574 21.9946 21.4554 22H18.0637C17.7672 22 17.5245 21.7574 17.5245 21.4554V20.2745H4.4755V21.4554C4.4755 21.752 4.2328 21.9946 3.9363 22H0.5446C0.248 22 0.0054 21.7574 0 21.4554V18.0637C0 17.7672 0.2426 17.5245 0.5446 17.5245H1.7255V4.4755H0.5446ZM20.9216 3.3971V1.0784H18.6029V3.3971H20.9216ZM18.6029 20.9216H20.9216V18.6029H18.6029V20.9216ZM4.4755 18.0637V19.1961H17.5245V18.0637C17.5245 17.7672 17.7672 17.5245 18.0637 17.5245H19.1961V4.4755H18.0637C17.7672 4.4755 17.5245 4.2328 17.5245 3.9363V2.8039H4.4755V3.9363C4.4755 4.2328 4.2328 4.4755 3.9363 4.4755H2.8039V17.5245H3.9363C4.2328 17.5245 4.4755 17.7672 4.4755 18.0637ZM1.0784 18.6029V20.9216H3.3971V18.6029H1.0784ZM3.3971 3.3971V1.0784H1.0784V3.3971H3.3971Z" fill="white"/>
</svg>
